<?xml version="1.0" standalone="no"?><!DOCTYPE svg PUBLIC "-//W3C//DTD SVG 1.1//EN" "http://www.w3.org/Graphics/SVG/1.1/DTD/svg11.dtd"><svg t="1699000794921" class="icon" viewBox="0 0 1024 1024" version="1.1" xmlns="http://www.w3.org/2000/svg" p-id="2113" xmlns:xlink="http://www.w3.org/1999/xlink" width="128" height="128"><path d="M722.10963 865.09037 722.10963 865.09037c-7.300741 0-14.506667-1.801481-20.859259-5.30963l-0.18963-0.094815-169.339259-93.866667c-2.844444-1.611852-6.352593-1.611852-9.197037 0l-169.623704 93.297778c-6.352593 3.508148-13.558519 5.30963-20.859259 5.30963-9.007407 0-17.635556-2.74963-24.936296-7.964444-13.368889-9.481481-20.385185-26.074074-17.73037-42.287407l33.185185-201.860741c0.474074-2.939259-0.474074-5.973333-2.56-8.154074L181.096296 461.179259c-11.377778-11.662222-15.17037-28.539259-9.955556-43.994074 5.214815-15.454815 18.394074-26.453333 34.512593-28.918519l190.388148-28.728889c3.128889-0.474074 5.783704-2.465185 7.205926-5.30963l85.997037-181.94963c7.111111-15.075556 22.471111-24.746667 39.063704-24.746667l0.094815 0c16.687407 0 32.047407 9.860741 39.063704 24.936296l85.238519 182.423704c1.327407 2.844444 3.982222 4.835556 7.111111 5.404444l190.008889 29.297778c16.023704 2.465185 29.297778 13.558519 34.417778 29.013333 5.12 15.454815 1.232593 32.237037-10.05037 43.899259L734.814815 604.918519c-2.085926 2.180741-3.034074 5.214815-2.56 8.154074l31.478519 195.602963c0 0 0 0 0 0 1.991111 6.162963 2.465185 12.61037 1.611852 19.247407C762.500741 849.351111 743.727407 865.09037 722.10963 865.09037zM719.36 826.500741c0.853333 0.474074 1.801481 0.663704 2.654815 0.663704l0.474074 0c2.654815 0 4.93037-1.896296 5.214815-4.456296 0.094815-1.042963 0-1.991111-0.284444-2.74963l-0.663704-1.801481-35.081481-217.979259c-0.474074-2.939259 0.474074-5.973333 2.56-8.154074l152.746667-156.065185c1.327407-1.422222 1.801481-3.508148 1.232593-5.404444-0.663704-1.896296-2.275556-3.223704-4.266667-3.508148l-210.10963-32.426667c-3.128889-0.474074-5.783704-2.465185-7.111111-5.404444l-93.771852-200.722963c-0.853333-1.896296-2.74963-3.034074-4.835556-3.034074-2.085926 0-3.887407 1.232593-4.835556 3.034074L428.847407 388.740741c-1.327407 2.844444-4.077037 4.835556-7.205926 5.30963l-210.394074 31.668148c-1.991111 0.284444-3.602963 1.706667-4.266667 3.602963-0.663704 1.896296-0.18963 3.982222 1.232593 5.404444l152.367407 156.728889c2.085926 2.180741 3.034074 5.214815 2.56 8.154074l-36.314074 220.728889c-0.284444 1.991111 0.474074 3.982222 2.180741 5.214815 1.137778 0.853333 2.275556 0.948148 3.034074 0.948148 0.853333 0 1.801481-0.18963 2.56-0.663704L522.619259 722.488889c2.844444-1.611852 6.352593-1.611852 9.197037 0L719.36 826.500741z" fill="#272536" p-id="2114"></path></svg>